<svg width="57" height="57" viewBox="0 0 57 57" fill="none" xmlns="http://www.w3.org/2000/svg">
    <g clip-path="url(#clip0_7_38)">
    <path fill-rule="evenodd" clip-rule="evenodd" d="M56.0387 28.9391C56.0934 41.5738 48.148 52.3292 37.0799 56.1592C35.6854 56.4286 35.173 55.5476 35.1698 54.7891C35.1668 54.1096 35.183 52.3116 35.1864 49.9254C42.9528 51.6195 44.5658 46.0501 44.5658 46.0501C45.8204 42.7402 47.6454 41.8526 47.6454 41.8526C50.1704 40.0666 47.4461 40.1152 47.4461 40.1152C44.6472 40.3293 43.1864 43.0817 43.1864 43.0817C40.7155 47.4626 36.6704 46.2177 35.0781 45.4924C34.8167 43.6447 34.0903 42.3889 33.291 41.676C39.4816 40.9275 45.9833 38.4465 45.9359 27.4868C45.9223 24.3633 44.8239 21.815 43.0309 19.8229C43.3138 19.0983 44.2584 16.1865 42.7242 12.2566C42.7242 12.2566 40.3783 11.496 35.067 15.2202C32.8381 14.596 30.4514 14.2886 28.0797 14.2883C25.7097 14.3091 23.3257 14.6372 21.0989 15.2807C15.759 11.6025 13.4232 12.3834 13.4232 12.3834C11.9196 16.3265 12.8894 19.23 13.1786 19.9521C11.3995 21.9597 10.3317 24.5173 10.3452 27.6408C10.3927 38.6269 16.9241 41.0164 23.1414 41.6988C22.1435 42.5863 21.2606 44.3354 21.2722 47.0025C21.2887 50.8266 21.3346 53.9114 21.3386 54.849C21.342 55.6145 20.8441 56.5051 19.4267 56.2321C8.33617 52.491 0.304861 41.8134 0.25019 29.1805C0.181827 13.3836 12.6167 0.524538 28.0232 0.457864C43.4246 0.391212 55.9703 13.1422 56.0387 28.9391Z" fill="url(#paint0_linear_7_38)"/>
    </g>
    <defs>
    <linearGradient id="paint0_linear_7_38" x1="28.0207" y1="0.457875" x2="28.2621" y2="56.2464" gradientUnits="userSpaceOnUse">
    <stop stop-color="#11D9F4"/>
    <stop offset="0.947972" stop-color="#1535DE"/>
    </linearGradient>
    <clipPath id="clip0_7_38">
    <rect width="55.789" height="55.789" fill="white" transform="matrix(-0.999991 0.00432762 0.00432762 0.999991 55.9149 0.337158)"/>
    </clipPath>
    </defs>
    </svg>
    