<svg width="1007" height="242" viewBox="0 0 1007 242" fill="none" xmlns="http://www.w3.org/2000/svg">
<path d="M35.8855 33.6055H29.8556V51.6471H35.8858V45.6057H41.402V51.6471H47.4321V33.6055H41.4017V39.5633H35.8855V33.6055Z" fill="white"/>
<path d="M50.0533 39.5883H55.362L55.3623 51.6471H61.3927V39.5883H66.7038V33.6055H50.0533V39.5883Z" fill="white"/>
<path d="M69.3464 33.6055H75.6342L79.5021 39.9448L83.366 33.6055H89.6562V51.6471H83.6508V42.7047L79.5021 49.1195H79.3983L75.2467 42.7047V51.6471H69.3464V33.6055Z" fill="white"/>
<path d="M98.6893 33.6055H92.6573V51.6471H107.169V45.6836H98.6893V33.6055Z" fill="white"/>
<path fill-rule="evenodd" clip-rule="evenodd" d="M29.6625 156.649L21.0365 59.8982H115.821L107.186 156.634L68.3709 167.395L29.6625 156.649Z" fill="#E44D26"/>
<path fill-rule="evenodd" clip-rule="evenodd" d="M68.4289 159.17L99.7936 150.474L107.173 67.8091H68.4289V159.17Z" fill="#F16529"/>
<path d="M52.727 103.693H68.4289V115.558H41.8749L38.6744 79.6753H68.4289V91.5415H51.6426L52.727 103.693Z" fill="#EBEBEB"/>
<path d="M68.3769 134.524L68.4289 134.51V146.856L68.3743 146.871L44.0676 140.123L42.4051 121.492H54.3168L55.1616 130.955L68.3769 134.524Z" fill="#EBEBEB"/>
<path d="M68.3879 79.6753H98.1126L97.0501 91.5415H68.3879V79.6753Z" fill="white"/>
<path d="M68.3879 115.558V103.693H95.9704L95.6809 106.879L92.714 140.123L68.3879 146.865V134.52L81.6223 130.948L82.9997 115.558H68.3879Z" fill="white"/>
<path fill-rule="evenodd" clip-rule="evenodd" d="M237.076 111.456L192.541 66.9239C189.979 64.3587 185.819 64.3587 183.252 66.9239L174.005 76.1717L185.736 87.9029C188.462 86.9819 191.588 87.5996 193.761 89.7731C195.945 91.96 196.558 95.1127 195.615 97.848L206.92 109.154C209.656 108.212 212.812 108.822 214.996 111.01C218.049 114.062 218.049 119.008 214.996 122.063C211.942 125.117 206.995 125.117 203.94 122.063C201.644 119.764 201.076 116.391 202.239 113.561L191.695 103.017L191.694 130.764C192.438 131.134 193.141 131.625 193.761 132.243C196.814 135.295 196.814 140.241 193.761 143.298C190.707 146.351 185.758 146.351 182.708 143.298C179.655 140.241 179.655 135.295 182.708 132.243C183.463 131.489 184.336 130.92 185.267 130.537V102.532C184.336 102.151 183.464 101.585 182.708 100.826C180.395 98.5161 179.839 95.1217 181.024 92.2812L169.461 80.7156L138.925 111.25C136.358 113.818 136.358 117.978 138.925 120.543L183.459 165.076C186.023 167.641 190.182 167.641 192.75 165.076L237.076 120.75C239.641 118.184 239.641 114.021 237.076 111.456Z" fill="#DE4C36"/>
<path fill-rule="evenodd" clip-rule="evenodd" d="M283.745 157.103L275.801 68H363.098L355.145 157.089L319.396 167L283.745 157.103Z" fill="#0071BC"/>
<path fill-rule="evenodd" clip-rule="evenodd" d="M319.522 159.419L348.373 151.483L355.133 75.4204H319.522V159.419Z" fill="#29ABE2"/>
<path fill-rule="evenodd" clip-rule="evenodd" d="M293.986 108.157L294.943 119.069L319.522 108.157V97.2268L293.986 108.157Z" fill="#B3B3B3"/>
<path fill-rule="evenodd" clip-rule="evenodd" d="M346.746 85.5598L319.522 97.2268V108.157L345.807 96.4719L346.746 85.5598Z" fill="#E6E6E6"/>
<path fill-rule="evenodd" clip-rule="evenodd" d="M319.522 136.708L319.438 136.72L307.248 133.447L306.452 124.743H295.481L297.012 141.89L319.436 148.099L319.522 148.078V136.708Z" fill="#E6E6E6"/>
<path fill-rule="evenodd" clip-rule="evenodd" d="M319.522 108.156V119.069H332.868L331.655 133.335L319.522 136.717V148.087L341.872 141.878L344.815 108.156H319.522Z" fill="white"/>
<path fill-rule="evenodd" clip-rule="evenodd" d="M319.522 108.156H293.986L294.943 119.069H319.522V108.156Z" fill="#E6E6E6"/>
<path fill-rule="evenodd" clip-rule="evenodd" d="M319.523 96.4719V85.5598H319.412H292.045L293.014 96.4719H319.523Z" fill="#E6E6E6"/>
<path fill-rule="evenodd" clip-rule="evenodd" d="M319.522 85.5598V96.3351V96.4719H345.807L346.746 85.5598H319.522Z" fill="white"/>
<path d="M427.586 62C420.282 62 414.878 68.3924 415.12 75.325C415.352 81.9854 415.051 90.6113 412.879 97.6458C410.701 104.701 407.017 109.17 401 109.744V116.222C407.017 116.796 410.701 121.265 412.879 128.32C415.051 135.355 415.352 143.981 415.12 150.641C414.878 157.573 420.282 163.966 427.587 163.966H502.424C509.727 163.966 515.13 157.574 514.889 150.641C514.656 143.981 514.958 135.355 517.13 128.32C519.309 121.265 522.983 116.796 529 116.222V109.744C522.983 109.17 519.309 104.701 517.13 97.6458C514.958 90.6123 514.656 81.9854 514.889 75.325C515.13 68.3935 509.727 62 502.424 62H427.585H427.586ZM487.78 124.767C487.78 134.312 480.659 140.102 468.843 140.102H448.729C447.531 140.102 446.559 139.13 446.559 137.932V88.0339C446.559 86.8357 447.531 85.8644 448.729 85.8644H468.728C478.581 85.8644 485.047 91.2014 485.047 99.3955C485.047 105.147 480.697 110.296 475.155 111.198V111.498C482.7 112.326 487.78 117.55 487.78 124.767ZM466.65 92.7417H455.181V108.941H464.841C472.308 108.941 476.426 105.934 476.426 100.559C476.426 95.523 472.885 92.7417 466.65 92.7417ZM455.181 115.369V133.222H467.072C474.846 133.222 478.965 130.103 478.965 124.239C478.965 118.375 474.731 115.368 466.572 115.368H455.181V115.369Z" fill="#7E13F8"/>
<g clip-path="url(#clip0_13_101)">
<mask id="mask0_13_101" style="mask-type:alpha" maskUnits="userSpaceOnUse" x="738" y="52" width="119" height="118">
<path d="M822.057 169.352C823.924 170.079 826.053 170.032 827.937 169.126L852.342 157.39C854.906 156.157 856.537 153.563 856.537 150.717V71.1388C856.537 68.2932 854.906 65.6994 852.342 64.4661L827.937 52.7296C825.464 51.5403 822.57 51.8316 820.399 53.4087C820.089 53.6339 819.794 53.8855 819.517 54.1627L772.797 96.7609L752.446 81.3225C750.552 79.8854 747.902 80.0031 746.143 81.6026L739.616 87.5364C737.464 89.4929 737.461 92.8767 739.61 94.8363L757.259 110.928L739.61 127.019C737.461 128.979 737.464 132.363 739.616 134.319L746.143 140.253C747.902 141.853 750.552 141.97 752.446 140.533L772.797 125.095L819.517 167.693C820.256 168.432 821.124 168.989 822.057 169.352ZM826.921 84.0346L791.471 110.928L826.921 137.821V84.0346Z" fill="white"/>
</mask>
<g mask="url(#mask0_13_101)">
<path d="M852.414 64.4844L827.991 52.7317C825.164 51.3714 821.785 51.9452 819.566 54.1626L739.611 127.019C737.461 128.979 737.463 132.363 739.617 134.319L746.148 140.253C747.908 141.853 750.56 141.97 752.455 140.533L848.739 67.5333C851.969 65.0843 856.609 67.3868 856.609 71.4389V71.1555C856.609 68.3112 854.979 65.7183 852.414 64.4844Z" fill="#0065A9"/>
<path d="M852.414 157.371L827.991 169.124C825.164 170.484 821.785 169.91 819.566 167.693L739.611 94.8363C737.461 92.8766 737.463 89.4928 739.617 87.5363L746.148 81.6026C747.908 80.003 750.56 79.8853 752.455 81.3224L848.739 154.322C851.969 156.771 856.609 154.469 856.609 150.416V150.7C856.609 153.544 854.979 156.137 852.414 157.371Z" fill="#007ACC"/>
<path d="M827.914 169.133C825.086 170.492 821.707 169.918 819.489 167.7C822.222 170.433 826.897 168.497 826.897 164.633V57.2369C826.897 53.3728 822.222 51.4377 819.489 54.17C821.707 51.9524 825.086 51.3778 827.914 52.7369L852.334 64.4734C854.9 65.7067 856.531 68.3005 856.531 71.1461V150.725C856.531 153.57 854.9 156.164 852.334 157.397L827.914 169.133Z" fill="#1F9CF0"/>
<path d="M822.057 169.352C823.924 170.078 826.053 170.032 827.937 169.126L852.342 157.389C854.906 156.156 856.537 153.562 856.537 150.717V71.1385C856.537 68.2929 854.906 65.6991 852.342 64.4658L827.937 52.7294C825.464 51.5401 822.57 51.8314 820.399 53.4084C820.089 53.6337 819.794 53.8852 819.517 54.1624L772.797 96.7606L752.446 81.3223C750.552 79.8851 747.902 80.0029 746.143 81.6024L739.616 87.5361C737.464 89.4927 737.461 92.8764 739.61 94.8361L757.259 110.928L739.61 127.019C737.461 128.979 737.464 132.363 739.616 134.319L746.143 140.253C747.902 141.852 750.552 141.97 752.446 140.533L772.797 125.094L819.517 167.693C820.256 168.432 821.124 168.989 822.057 169.352ZM826.921 84.0343L791.471 110.928L826.921 137.821V84.0343Z" fill="url(#paint0_linear_13_101)" fill-opacity="0.25"/>
</g>
</g>
<g clip-path="url(#clip1_13_101)">
<path d="M906.049 147.375C904.639 148.58 902.671 148.888 900.96 148.174L892.024 144.425C890.201 143.665 889.011 141.888 889 139.914V87.4776C889.011 85.5031 890.201 83.7266 892.024 82.9665L900.96 79.279C902.671 78.5644 904.639 78.8733 906.049 80.078L908.052 81.7373C907.224 81.1418 906.131 81.0607 905.224 81.5273C904.317 81.9939 903.747 82.9296 903.75 83.9499V143.442C903.747 144.462 904.317 145.397 905.224 145.864C906.131 146.331 907.224 146.25 908.052 145.654L906.049 147.375Z" fill="#52218A"/>
<path d="M892.024 144.425C890.201 143.665 889.011 141.888 889 139.914V139.508C889.012 140.669 889.731 141.706 890.813 142.125C891.896 142.545 893.125 142.263 893.917 141.413L970.125 57.1539C972.336 54.9534 975.693 54.3825 978.508 55.7281L1002.82 67.4298C1005.38 68.6586 1007 71.2438 1007 74.0795V74.3623C1007 72.563 1005.96 70.9254 1004.33 70.1556C1002.71 69.3858 1000.78 69.6214 999.391 70.7608L908.052 145.654L906.049 147.375C904.639 148.579 902.671 148.888 900.96 148.174L892.024 144.425Z" fill="#6C33AF"/>
<path d="M892.024 82.9663C890.201 83.7264 889.011 85.5029 889 87.4774V87.883C889.012 86.7219 889.731 85.6853 890.813 85.2657C891.896 84.8462 893.125 85.1282 893.917 85.9778L970.125 170.237C972.336 172.438 975.693 173.009 978.508 171.663L1002.82 159.961C1005.38 158.732 1007 156.147 1007 153.312V153.029C1007 154.828 1005.96 156.466 1004.33 157.235C1002.71 158.005 1000.78 157.77 999.391 156.63L908.052 81.7371L906.049 80.0163C904.626 78.8324 902.66 78.5474 900.96 79.2788L892.024 82.9663Z" fill="#854CC7"/>
<path d="M978.508 171.663C975.693 173.009 972.336 172.438 970.125 170.237C971.364 171.467 973.22 171.832 974.832 171.163C976.444 170.494 977.496 168.922 977.5 167.177V60.2391C977.506 58.4893 976.457 56.9082 974.843 56.2329C973.229 55.5576 971.367 55.9211 970.125 57.1539C972.336 54.9534 975.693 54.3825 978.508 55.7281L1002.82 67.4175C1005.38 68.6463 1007 71.2315 1007 74.0673V153.324C1007 156.16 1005.38 158.745 1002.82 159.974L978.508 171.663Z" fill="#B179F1"/>
<path d="M973.677 172.204C975.302 172.575 977.005 172.384 978.508 171.663L1002.82 159.974C1005.38 158.745 1007 156.16 1007 153.324V74.0672C1007 71.2315 1005.38 68.6463 1002.82 67.4174L978.508 55.7281C976.788 54.9011 974.814 54.7734 973.001 55.3716C971.917 55.7348 970.933 56.3449 970.125 57.1539L930.939 100.494L908.052 81.7372L906.049 80.0164C904.826 78.9707 903.168 78.5897 901.611 78.9962C901.387 79.0458 901.168 79.12 900.96 79.2174L892.024 82.9664C890.318 83.6705 889.151 85.27 889 87.1087C889 87.2316 889 87.3545 889 87.4774V139.914C889 140.037 889 140.16 889 140.282C889.151 142.121 890.318 143.721 892.024 144.425L900.96 148.112C901.168 148.21 901.387 148.284 901.611 148.333C903.168 148.74 904.826 148.359 906.049 147.313L908.052 145.654L930.939 126.897L970.125 170.237C971.102 171.212 972.333 171.894 973.677 172.204ZM977.5 88.7189L947.029 113.696L977.5 138.672V88.7189ZM903.75 96.8191L919.004 113.696L903.75 130.572V96.8191Z" fill="url(#paint1_linear_13_101)" fill-opacity="0.25"/>
</g>
<path d="M690.545 128.548C685.855 128.572 681.778 129.702 678.365 131.372C677.112 128.892 675.86 126.682 675.639 125.061C675.393 123.17 675.099 122.016 675.393 119.757C675.688 117.497 677.014 114.28 676.99 114.035C676.965 113.789 676.695 112.635 673.994 112.611C671.292 112.586 668.96 113.126 668.689 113.838C668.419 114.551 667.904 116.171 667.56 117.841C667.093 120.297 662.157 129.064 659.333 133.656C658.425 131.863 657.639 130.291 657.467 129.039C657.221 127.148 656.927 125.994 657.221 123.735C657.516 121.476 658.842 118.259 658.818 118.013C658.793 117.767 658.523 116.613 655.822 116.589C653.12 116.564 650.787 117.104 650.517 117.817C650.247 118.529 649.953 120.199 649.388 121.819C648.823 123.44 642.266 138.076 640.547 141.858C639.663 143.798 638.902 145.345 638.362 146.401C638.362 146.401 638.337 146.474 638.264 146.597C637.797 147.506 637.527 147.997 637.527 147.997C637.527 147.997 637.527 147.997 637.527 148.021C637.158 148.685 636.766 149.298 636.569 149.298C636.422 149.298 636.152 147.53 636.618 145.124C637.6 140.041 639.933 132.133 639.909 131.863C639.909 131.716 640.351 130.341 638.386 129.628C636.471 128.916 635.783 130.095 635.611 130.095C635.439 130.095 635.317 130.512 635.317 130.512C635.317 130.512 637.453 121.623 631.24 121.623C627.36 121.623 622.007 125.871 619.355 129.702C617.685 130.611 614.124 132.551 610.318 134.638C608.869 135.448 607.371 136.259 605.971 137.02C605.873 136.922 605.775 136.799 605.677 136.701C598.162 128.671 584.263 122.998 584.852 112.218C585.074 108.289 586.424 97.9747 611.546 85.4507C632.223 75.2597 648.676 78.0837 651.524 84.3457C655.601 93.2844 642.708 109.885 621.344 112.291C613.191 113.2 608.918 110.057 607.838 108.878C606.708 107.65 606.536 107.576 606.119 107.822C605.431 108.19 605.873 109.295 606.119 109.934C606.757 111.604 609.385 114.551 613.83 115.999C617.759 117.276 627.311 117.989 638.877 113.519C651.819 108.51 661.936 94.5859 658.965 82.9214C655.994 71.085 636.348 67.1805 617.759 73.7863C606.708 77.7154 594.724 83.9037 586.105 91.9583C575.865 101.535 574.244 109.86 574.907 113.347C577.289 125.724 594.356 133.779 601.183 139.746C600.839 139.942 600.52 140.114 600.25 140.262C596.836 141.956 583.821 148.758 580.58 155.953C576.896 164.106 581.169 169.951 583.993 170.737C592.76 173.168 601.772 168.797 606.61 161.577C611.448 154.357 610.858 144.976 608.623 140.679C608.599 140.63 608.574 140.581 608.525 140.532C609.409 140.016 610.318 139.476 611.202 138.96C612.945 137.929 614.664 136.971 616.138 136.185C615.303 138.469 614.689 141.195 614.394 145.124C614.026 149.74 615.917 155.732 618.397 158.09C619.502 159.121 620.804 159.146 621.639 159.146C624.536 159.146 625.838 156.739 627.287 153.891C629.055 150.403 630.651 146.352 630.651 146.352C630.651 146.352 628.662 157.304 634.064 157.304C636.029 157.304 638.018 154.75 638.902 153.449C638.902 153.473 638.902 153.473 638.902 153.473C638.902 153.473 638.951 153.399 639.049 153.228C639.246 152.908 639.369 152.712 639.369 152.712C639.369 152.712 639.369 152.687 639.369 152.663C640.154 151.288 641.922 148.169 644.55 142.987C647.939 136.308 651.205 127.959 651.205 127.959C651.205 127.959 651.5 129.997 652.506 133.386C653.096 135.375 654.324 137.56 655.306 139.672C654.52 140.777 654.029 141.391 654.029 141.391C654.029 141.391 654.029 141.391 654.054 141.416C653.415 142.251 652.727 143.159 651.966 144.043C649.29 147.236 646.097 150.895 645.655 151.951C645.139 153.203 645.262 154.112 646.244 154.848C646.957 155.389 648.234 155.462 649.535 155.389C651.942 155.217 653.636 154.627 654.471 154.259C655.773 153.792 657.295 153.08 658.719 152.024C661.347 150.084 662.943 147.309 662.796 143.65C662.722 141.637 662.059 139.623 661.249 137.732C661.494 137.388 661.715 137.045 661.961 136.701C666.111 130.635 669.328 123.98 669.328 123.98C669.328 123.98 669.623 126.019 670.629 129.407C671.121 131.126 672.127 132.993 673.011 134.81C669.107 137.978 666.7 141.661 665.841 144.068C664.294 148.537 665.497 150.551 667.781 151.017C668.812 151.238 670.286 150.747 671.366 150.281C672.741 149.839 674.362 149.077 675.909 147.948C678.537 146.008 681.066 143.307 680.919 139.648C680.845 137.978 680.403 136.332 679.789 134.736C683.104 133.361 687.377 132.6 692.829 133.238C704.518 134.613 706.826 141.907 706.384 144.976C705.942 148.046 703.486 149.716 702.676 150.232C701.866 150.747 701.596 150.919 701.669 151.288C701.767 151.828 702.16 151.803 702.848 151.705C703.806 151.533 708.987 149.225 709.208 143.577C709.576 136.357 702.701 128.474 690.545 128.548ZM600.372 158.949C596.492 163.173 591.09 164.769 588.757 163.419C586.252 161.97 587.235 155.732 591.999 151.263C594.896 148.537 598.629 146.008 601.109 144.461C601.674 144.117 602.509 143.626 603.516 143.012C603.688 142.914 603.786 142.865 603.786 142.865C603.982 142.742 604.179 142.619 604.375 142.496C606.119 148.881 604.449 154.504 600.372 158.949ZM628.613 139.746C627.262 143.036 624.438 151.459 622.719 150.993C621.246 150.6 620.337 144.215 622.424 137.904C623.48 134.736 625.715 130.954 627.017 129.481C629.128 127.124 631.461 126.338 632.026 127.296C632.738 128.548 629.448 137.683 628.613 139.746ZM651.917 150.895C651.352 151.189 650.812 151.386 650.566 151.238C650.395 151.14 650.812 150.747 650.812 150.747C650.812 150.747 653.734 147.604 654.888 146.18C655.552 145.345 656.337 144.363 657.172 143.257C657.172 143.356 657.172 143.478 657.172 143.577C657.172 147.334 653.538 149.863 651.917 150.895ZM669.893 146.794C669.475 146.499 669.549 145.517 670.949 142.447C671.489 141.244 672.766 139.23 674.951 137.29C675.197 138.076 675.369 138.837 675.344 139.549C675.32 144.289 671.931 146.057 669.893 146.794Z" fill="#CD6799"/>
<defs>
<linearGradient id="paint0_linear_13_101" x1="797.269" y1="51.9998" x2="797.269" y2="169.855" gradientUnits="userSpaceOnUse">
<stop stop-color="white"/>
<stop offset="1" stop-color="white" stop-opacity="0"/>
</linearGradient>
<linearGradient id="paint1_linear_13_101" x1="948" y1="55.0029" x2="948" y2="172.388" gradientUnits="userSpaceOnUse">
<stop stop-color="white"/>
<stop offset="1" stop-color="white" stop-opacity="0"/>
</linearGradient>
<clipPath id="clip0_13_101">
<rect width="119" height="118" fill="white" transform="translate(738 52)"/>
</clipPath>
<clipPath id="clip1_13_101">
<rect width="118" height="118" fill="white" transform="translate(889 55)"/>
</clipPath>
</defs>
</svg>
