<svg width="1040" height="149" viewBox="0 0 1040 149" fill="none" xmlns="http://www.w3.org/2000/svg">
    <g clip-path="url(#clip0_13_102)">
    <path d="M0 53.3429C0 38.5215 0 31.1108 2.88443 25.4497C5.42165 20.4702 9.47018 16.4217 14.4497 13.8844C20.1108 11 27.5215 11 42.3429 11H74.6571C89.4785 11 96.8892 11 102.55 13.8844C107.53 16.4217 111.578 20.4702 114.116 25.4497C117 31.1108 117 38.5215 117 53.3429V85.6571C117 100.479 117 107.889 114.116 113.55C111.578 118.53 107.53 122.578 102.55 125.116C96.8892 128 89.4785 128 74.6571 128H42.3429C27.5215 128 20.1108 128 14.4497 125.116C9.47018 122.578 5.42165 118.53 2.88443 113.55C0 107.889 0 100.479 0 85.6571V53.3429Z" fill="#470137"/>
    <path d="M12.5396 97.4797V45.3437C12.5023 45.014 12.743 44.7096 13.0581 44.688C17.848 44.3398 22.7035 44.443 27.5013 44.4419C36.8823 44.4419 46.403 47.8392 51.0178 57.0252C52.9679 60.933 53.9431 65.4279 53.9437 70.51C54.0008 74.059 53.4874 77.5926 52.4251 80.9618C51.5082 83.8155 50.1024 86.4687 48.2773 88.7904C46.5773 90.9285 44.5647 92.7686 42.3148 94.2418C33.859 99.7703 22.5834 98.9143 12.9839 98.2995C12.6876 98.2995 12.5395 98.0262 12.5396 97.4797ZM22.7609 54.5249V88.4625C34.0593 88.4625 43.4689 83.6773 43.2778 70.756C43.526 57.6579 33.6412 53.8282 22.7609 54.5249Z" fill="#FF61F6"/>
    <path d="M97.3051 98.3077H88.2415C87.7442 98.3788 87.508 97.9194 87.3716 97.4879C85.5222 87.9213 83.5851 78.5019 81.8608 69.2065C79.8205 78.6596 77.7458 88.0899 75.48 97.4879C75.3826 98.0348 75.1176 98.3077 74.6824 98.3077H65.6188C65.1124 98.3649 64.7475 98.0687 64.6038 97.5699L55.1775 58.2219C55.0326 57.7851 55.226 57.5665 55.7576 57.5661H64.8938C65.3288 57.5661 65.5705 57.73 65.6188 58.058C67.7013 67.7146 69.5267 77.391 71.0571 87.1591C72.9313 77.4835 75.1105 67.8095 77.0752 58.3859C77.1178 57.8623 77.2791 57.5661 77.8002 57.5661H87.299C87.5891 57.5661 87.7578 57.7583 87.8066 58.14C89.934 67.7677 91.5755 77.229 93.2448 87.487C95.4911 77.8268 96.789 67.9168 98.9729 58.2219C99.0692 57.7851 99.2868 57.5665 99.6256 57.5661H108.109C108.544 57.5661 108.713 57.812 108.617 58.3039L98.1753 97.5699C98.0442 98.0044 97.7837 98.3708 97.3051 98.3077Z" fill="#FF61F6"/>
    </g>
    <path d="M252.138 66.3246C252.138 65.0354 251.186 64.292 250.016 64.6614L169.583 90.1669C168.411 90.5386 167.461 91.8866 167.461 93.1734V119.241C167.461 120.53 168.411 121.276 169.583 120.904L250.016 95.4012C251.186 95.0295 252.138 93.6815 252.138 92.3924V66.3246Z" fill="url(#paint0_linear_13_102)"/>
    <path d="M167.461 65.4941C167.461 66.7832 168.411 68.1312 169.583 68.5029L250.028 94.0108C251.2 94.3825 252.15 93.6367 252.15 92.3499V66.2798C252.15 64.993 251.2 63.645 250.028 63.2733L169.583 37.7654C168.411 37.3937 167.461 38.1371 167.461 39.4263V65.4941Z" fill="#FF9800"/>
    <path d="M252.138 12.7588C252.138 11.4696 251.186 10.7239 250.016 11.0956L169.583 36.5987C168.411 36.9704 167.461 38.3184 167.461 39.6076V65.6754C167.461 66.9645 168.411 67.7079 169.583 67.3386L250.016 41.833C251.186 41.4613 252.138 40.1133 252.138 38.8265V12.7588Z" fill="#FF9800"/>
    <path fill-rule="evenodd" clip-rule="evenodd" d="M310.09 20.0898H400.91V110.91H310.09V20.0898Z" fill="#F7DF1E"/>
    <path fill-rule="evenodd" clip-rule="evenodd" d="M333.97 95.9859L340.92 91.7798C342.261 94.1571 343.481 96.1686 346.406 96.1686C349.211 96.1686 350.979 95.0715 350.979 90.8044V61.7852H359.514V90.9251C359.514 99.7649 354.332 103.789 346.772 103.789C339.945 103.789 335.981 100.252 333.97 95.9852" fill="black"/>
    <path fill-rule="evenodd" clip-rule="evenodd" d="M364.15 95.0713L371.099 91.0477C372.928 94.0353 375.306 96.2298 379.512 96.2298C383.049 96.2298 385.304 94.4617 385.304 92.0231C385.304 89.0968 382.987 88.0603 379.085 86.3539L376.952 85.4387C370.794 82.8178 366.71 79.5258 366.71 72.5757C366.71 66.1745 371.587 61.2971 379.208 61.2971C384.633 61.2971 388.535 63.1872 391.339 68.1254L384.694 72.3926C383.231 69.7714 381.646 68.7352 379.208 68.7352C376.708 68.7352 375.123 70.3202 375.123 72.3926C375.123 74.9532 376.708 75.9898 380.366 77.575L382.499 78.4894C389.754 81.5988 393.839 84.7686 393.839 91.9011C393.839 99.5831 387.803 103.789 379.695 103.789C371.77 103.789 366.649 100.01 364.15 95.0713" fill="black"/>
    <g clip-path="url(#clip1_13_102)">
    <path d="M507.491 17.4141C480.647 17.4141 482.323 29.0555 482.323 29.0555L482.353 41.1159H507.97V44.737H472.178C472.178 44.737 455 42.7889 455 69.8754C455 96.9618 469.993 96.0013 469.993 96.0013H478.941V83.4321C478.941 83.4321 478.459 68.4389 493.695 68.4389H519.103C519.103 68.4389 533.378 68.6697 533.378 54.6427V31.4496C533.378 31.4496 535.545 17.4141 507.491 17.4141ZM493.366 25.5242C495.915 25.5242 497.975 27.5841 497.975 30.1329C497.975 32.6816 495.915 34.7416 493.366 34.7416C490.817 34.7416 488.757 32.6816 488.757 30.1329C488.757 27.5841 490.817 25.5242 493.366 25.5242Z" fill="url(#paint1_linear_13_102)"/>
    <path d="M508.254 122.608C535.098 122.608 533.422 110.967 533.422 110.967L533.392 98.9064H507.775V95.2853H543.567C543.567 95.2853 560.745 97.2334 560.745 70.147C560.745 43.0605 545.752 44.0211 545.752 44.0211H536.804V56.5902C536.804 56.5902 537.286 71.5835 522.05 71.5835H496.642C496.642 71.5835 482.367 71.3527 482.367 85.3796V108.573C482.367 108.573 480.2 122.608 508.254 122.608ZM522.379 114.498C519.83 114.498 517.77 112.438 517.77 109.889C517.77 107.341 519.83 105.281 522.379 105.281C524.928 105.281 526.988 107.341 526.988 109.889C526.988 112.438 524.928 114.498 522.379 114.498Z" fill="url(#paint2_linear_13_102)"/>
    </g>
    <g clip-path="url(#clip2_13_102)">
    <path d="M641.218 88.1624C641.218 88.1624 636.862 90.6958 644.319 91.553C653.352 92.5836 657.969 92.4358 667.925 90.5517C667.925 90.5517 670.542 92.1928 674.197 93.6142C651.88 103.179 623.69 93.0602 641.218 88.1624Z" fill="#5382A1"/>
    <path d="M638.492 75.6814C638.492 75.6814 633.606 79.2982 641.068 80.0701C650.718 81.0656 658.339 81.1471 671.526 78.6078C671.526 78.6078 673.35 80.4569 676.218 81.4681C649.236 89.3581 619.182 82.0904 638.492 75.6814Z" fill="#5382A1"/>
    <path d="M661.481 54.5092C666.98 60.8401 660.036 66.5372 660.036 66.5372C660.036 66.5372 673.999 59.3293 667.587 50.3034C661.598 41.8861 657.005 37.7039 681.868 23.2842C681.868 23.2842 642.841 33.0313 661.481 54.5092Z" fill="#E76F00"/>
    <path d="M690.997 97.3944C690.997 97.3944 694.221 100.051 687.446 102.106C674.565 106.008 633.832 107.186 622.517 102.261C618.449 100.492 626.077 98.0359 628.476 97.5207C630.979 96.978 632.409 97.0791 632.409 97.0791C627.885 93.8925 603.17 103.336 619.855 106.041C665.356 113.42 702.799 102.718 690.997 97.3944Z" fill="#5382A1"/>
    <path d="M643.314 62.7495C643.314 62.7495 622.595 67.6707 635.977 69.4578C641.627 70.2142 652.891 70.0431 663.383 69.164C671.958 68.4407 680.567 66.9028 680.567 66.9028C680.567 66.9028 677.544 68.1977 675.356 69.6913C654.316 75.2248 613.671 72.6506 625.372 66.9904C635.268 62.2069 643.314 62.7495 643.314 62.7495Z" fill="#5382A1"/>
    <path d="M680.482 83.5248C701.87 72.4107 691.981 61.7301 685.078 63.169C683.387 63.5212 682.632 63.8263 682.632 63.8263C682.632 63.8263 683.26 62.8424 684.46 62.4165C698.115 57.6158 708.617 76.5757 680.052 84.085C680.052 84.0853 680.383 83.7894 680.482 83.5248Z" fill="#5382A1"/>
    <path d="M667.587 0C667.587 0 679.432 11.8491 656.352 30.0697C637.845 44.6858 652.132 53.0195 656.345 62.541C645.542 52.7939 637.613 44.2135 642.932 36.2277C650.739 24.5051 672.366 18.8216 667.587 0Z" fill="#E76F00"/>
    <path d="M645.415 113.642C665.945 114.956 697.471 112.912 698.218 103.198C698.218 103.198 696.783 106.881 681.251 109.805C663.728 113.103 642.116 112.718 629.298 110.605C629.298 110.604 631.922 112.776 645.415 113.642Z" fill="#5382A1"/>
    </g>
    <ellipse cx="826.5" cy="79.8505" rx="67.8711" ry="35.4286" fill="url(#paint3_radial_13_102)"/>
    <ellipse cx="826.5" cy="79.8504" rx="65.2199" ry="32.7965" fill="#6181B6"/>
    <path fill-rule="evenodd" clip-rule="evenodd" d="M839.703 90.4843L842.938 73.9545C843.68 70.2169 843.044 67.4268 841.135 65.6896C839.279 64.005 836.097 63.1627 831.431 63.1627H825.811L827.401 54.9504C827.454 54.6346 827.401 54.3187 827.189 54.0555C826.977 53.7923 826.712 53.687 826.394 53.687H818.652C818.122 53.687 817.698 54.0555 817.592 54.5293L814.145 72.0594C813.827 70.0589 813.085 68.3744 811.812 67.0056C809.532 64.4261 805.98 63.1101 801.154 63.1101H786.255C785.724 63.1101 785.3 63.4786 785.194 63.9524L778.248 99.5389C778.195 99.8548 778.248 100.171 778.46 100.434C778.672 100.697 778.937 100.802 779.255 100.802H787.05C787.58 100.802 788.004 100.434 788.11 99.9601L789.807 91.3793H795.587C798.609 91.3793 801.207 91.0634 803.169 90.4317C805.237 89.7473 807.093 88.6418 808.737 87.1152C810.062 85.9044 811.176 84.5357 812.024 83.0617L810.646 90.1685C810.593 90.4843 810.646 90.8002 810.858 91.0634C811.07 91.3266 811.335 91.4319 811.653 91.4319H819.395C819.925 91.4319 820.349 91.0634 820.455 90.5896L824.273 71.1118H829.575C831.855 71.1118 832.492 71.5329 832.704 71.7435C832.863 71.9014 833.181 72.5331 832.81 74.4809L829.734 90.2211C829.681 90.537 829.734 90.8528 829.947 91.1161C830.159 91.3793 830.424 91.4846 830.742 91.4846H838.696C839.173 91.3266 839.597 90.9581 839.703 90.4843ZM803.859 76.7972C803.381 79.2714 802.48 81.0613 801.154 82.0615C799.829 83.0617 797.655 83.5881 794.791 83.5881H791.345L793.837 70.8486H798.291C801.579 70.8486 802.904 71.5329 803.434 72.112C804.124 72.9543 804.283 74.5862 803.859 76.7972Z" fill="white"/>
    <path fill-rule="evenodd" clip-rule="evenodd" d="M872.79 67.0057C870.51 64.4262 866.958 63.1101 862.132 63.1101H847.126C846.596 63.1101 846.172 63.4786 846.066 63.9524L839.12 99.4863C839.067 99.8022 839.12 100.118 839.332 100.381C839.544 100.644 839.809 100.75 840.127 100.75H847.922C848.452 100.75 848.876 100.381 848.982 99.9074L850.679 91.3267H856.459C859.481 91.3267 862.079 91.0108 864.041 90.3791C866.109 89.6947 867.965 88.5892 869.609 87.0626C870.987 85.7992 872.154 84.3778 873.002 82.8512C873.851 81.3245 874.487 79.64 874.858 77.7975C875.76 73.2175 875.07 69.6378 872.79 67.0057ZM864.677 76.7972C864.2 79.2715 863.299 81.0613 861.973 82.0615C860.648 83.0617 858.474 83.5882 855.61 83.5882H852.164L854.656 70.8486H859.11C862.397 70.8486 863.723 71.533 864.253 72.112C864.996 72.9543 865.155 74.5862 864.677 76.7972Z" fill="white"/>
    <path fill-rule="evenodd" clip-rule="evenodd" d="M798.291 69.7956C801.26 69.7956 803.222 70.3221 804.23 71.4276C805.237 72.5331 805.449 74.3755 804.919 77.0077C804.389 79.7451 803.328 81.7455 801.791 82.9037C800.253 84.0618 797.92 84.6409 794.791 84.6409H790.072L792.989 69.7956H798.291ZM779.308 99.6967H787.103L788.959 90.2737H795.64C798.609 90.2737 800.995 89.9578 802.904 89.3261C804.813 88.6944 806.51 87.6942 808.101 86.2202C809.426 85.0094 810.487 83.6933 811.282 82.272C812.077 80.8506 812.661 79.2713 812.979 77.5341C813.827 73.3227 813.191 70.0588 811.123 67.6899C809.055 65.321 805.767 64.1628 801.26 64.1628H786.255L779.308 99.6967Z" fill="#000004"/>
    <path fill-rule="evenodd" clip-rule="evenodd" d="M818.705 54.7397H826.447L824.591 64.1628H831.484C835.832 64.1628 838.802 64.8998 840.445 66.4265C842.089 67.9531 842.566 70.3747 841.93 73.7438L838.696 90.2737H830.848L833.923 74.5334C834.295 72.7436 834.135 71.5328 833.552 70.9011C832.969 70.2694 831.643 69.9009 829.681 69.9009H823.478L819.501 90.2737H811.759L818.705 54.7397Z" fill="#000004"/>
    <path fill-rule="evenodd" clip-rule="evenodd" d="M859.11 69.7956C862.079 69.7956 864.041 70.3221 865.049 71.4276C866.056 72.5331 866.268 74.3755 865.738 77.0077C865.208 79.7451 864.147 81.7455 862.609 82.9037C861.072 84.0618 858.739 84.6409 855.61 84.6409H850.891L853.807 69.7956H859.11ZM840.127 99.6967H847.922L849.778 90.2737H856.459C859.428 90.2737 861.814 89.9578 863.723 89.3261C865.632 88.6944 867.329 87.6942 868.919 86.2202C870.245 85.0094 871.305 83.6933 872.101 82.272C872.896 80.8506 873.479 79.2713 873.798 77.5341C874.646 73.3227 874.01 70.0588 871.942 67.6899C869.874 65.321 866.586 64.1628 862.079 64.1628H847.073L840.127 99.6967Z" fill="#000004"/>
    <path d="M1017.65 105.455C1021.4 103.87 1025.87 103.293 1031.64 103.437C1031.48 102.358 1029.41 101.077 1027.9 100.138C1027.4 99.8234 1026.95 99.547 1026.66 99.3298C1024.36 97.6725 1021.9 95.9425 1019.45 94.43C1018.66 93.9477 1017.53 93.5454 1016.43 93.1582C1015.73 92.909 1015.04 92.6662 1014.48 92.4124C1013.9 92.1775 1013.12 91.9426 1012.27 91.689C1010.25 91.0865 1007.89 90.3785 1007.13 89.3141C1005.16 86.7668 1003.8 83.6866 1002.43 80.6107C1002.29 80.2929 1002.15 79.9752 1002.01 79.6582C1001.29 78.0243 1000.5 76.3583 999.696 74.6829C998.802 72.8116 997.903 70.9286 997.104 69.0656C996.756 68.3068 996.491 67.5894 996.231 66.8832C995.898 65.9802 995.571 65.0955 995.086 64.1658C989.823 54.0059 982.037 45.5027 972.592 39.5221C969.492 37.5764 966.032 35.7745 962.211 34.5499C961.044 34.2002 959.751 34.1439 958.446 34.087C957.331 34.0385 956.208 33.9896 955.146 33.7575H953.631C952.757 33.5148 951.981 32.8142 951.259 32.1625C950.91 31.8467 950.573 31.5425 950.243 31.3073C948.008 29.7943 945.774 28.7849 943.106 27.7045C942.169 27.2723 939.501 26.2633 938.564 27.0562C937.987 27.2004 937.699 27.4165 937.555 27.9929C936.978 28.8576 937.483 30.1546 937.843 30.947C938.558 32.4708 939.461 33.5855 940.387 34.7279C940.863 35.3143 941.344 35.9079 941.808 36.5679C942.03 36.8809 942.262 37.201 942.497 37.5265C943.561 38.9989 944.705 40.5814 945.413 42.116C946.413 44.2688 947.126 46.5447 947.836 48.8123C948.457 50.7952 949.076 52.7717 949.883 54.6541C950.532 56.1676 951.541 57.8967 952.478 59.266C952.772 59.6667 953.155 60.0277 953.543 60.3932C954.202 61.0136 954.874 61.6469 955.146 62.5086C955.847 63.6764 954.56 67.0206 953.778 69.0525C953.595 69.5281 953.439 69.9318 953.343 70.2188C951.469 76.1271 951.829 84.3419 953.992 89.4578C954.069 89.6381 954.146 89.8212 954.223 90.0057C955.011 91.8862 955.857 93.9046 957.957 94.4299C958.022 94.3646 958.029 94.3437 958.043 94.3337C958.06 94.3216 958.088 94.3253 958.246 94.2857C958.351 93.4575 958.441 92.6355 958.529 91.8251C958.864 88.7578 959.181 85.8561 960.264 83.4053C960.78 82.1397 961.631 81.1181 962.461 80.1223C962.907 79.5871 963.347 79.0595 963.725 78.5054C964.182 78.7797 964.349 79.4021 964.521 80.0415C964.62 80.4095 964.72 80.7832 964.878 81.0993C964.946 81.2615 965.015 81.4249 965.084 81.5892C965.963 83.6876 966.909 85.9453 967.978 88.0167C970.357 92.6285 973.025 97.0957 976.053 101.131C977.062 102.572 978.504 104.158 979.802 105.455C979.999 105.627 980.205 105.775 980.408 105.92C980.797 106.198 981.175 106.469 981.46 106.896H981.604V107.112C980.235 106.611 979.184 105.532 978.158 104.478C977.563 103.867 976.976 103.265 976.341 102.789C973.097 100.339 969.204 96.6635 966.969 93.133C966.265 91.6174 965.52 90.1424 964.765 88.647C964.515 88.1517 964.264 87.6543 964.013 87.1523C964.013 87.1523 964.014 87.08 964.013 87.0081C963.738 87.3754 963.696 87.7424 963.646 88.1843C963.618 88.4359 963.587 88.7117 963.508 89.0256C963.241 90.053 963.109 91.1213 962.981 92.1539C962.66 94.7424 962.367 97.1057 960.048 98.0328C956.371 99.5463 953.632 95.5822 952.478 93.7812C948.802 87.8006 947.792 77.7125 950.387 69.5701C950.588 68.9434 950.728 68.2731 950.867 67.6047C951.128 66.3518 951.388 65.1056 952.046 64.1658C951.901 63.2999 951.403 62.8513 950.917 62.4129C950.674 62.1947 950.435 61.979 950.243 61.7157C949.234 60.3469 948.369 58.7615 947.576 57.2485C946.423 54.9993 945.522 52.4158 944.648 49.9121C944.374 49.1269 944.102 48.3494 943.827 47.5926C943.581 46.9603 943.421 46.3277 943.262 45.7036C943.096 45.0476 942.932 44.401 942.674 43.7736C941.992 42.2977 940.864 40.8221 939.816 39.4521C939.533 39.0828 939.257 38.7212 938.997 38.3693C938.716 37.9665 938.344 37.4996 937.929 36.9791C935.897 34.4268 932.838 30.5863 934.455 26.6959C937.483 19.2741 948.081 24.894 952.19 27.4884C952.601 27.7524 953.035 28.1357 953.484 28.5315C954.138 29.1081 954.822 29.7112 955.506 30.0104C956.408 30.0466 957.309 30.1006 958.21 30.1546C959.112 30.2086 960.013 30.2626 960.913 30.2988C961.208 30.3678 961.502 30.4358 961.794 30.5033C964.85 31.2108 967.706 31.8717 970.141 33.253C982.541 40.531 990.616 47.9529 998.041 60.2026C999.05 61.8512 999.737 63.5872 1000.44 65.3552C1000.84 66.3689 1001.25 67.3931 1001.72 68.4174C1003.52 72.5966 1005.54 76.9915 1007.63 80.9551C1007.89 81.4805 1008.14 82.0229 1008.38 82.5663C1009.02 83.961 1009.65 85.3628 1010.59 86.5036C1010.92 86.9832 1011.67 87.2392 1012.39 87.4844C1012.75 87.6076 1013.11 87.7281 1013.4 87.8729C1014.33 88.3529 1015.34 88.7887 1016.36 89.228C1017.94 89.9095 1019.54 90.5995 1020.9 91.4758C1025.08 94.0697 1029.11 97.1676 1032.79 100.339C1033.53 101.003 1034.15 101.816 1034.77 102.628C1035.28 103.313 1035.8 103.997 1036.4 104.59V105.239C1035.24 105.599 1034.09 105.959 1032.93 106.248C1031.68 106.57 1030.5 106.696 1029.32 106.822C1028.14 106.948 1026.96 107.074 1025.73 107.4C1025.57 107.445 1025.41 107.491 1025.25 107.537C1023.83 107.947 1022.17 108.424 1020.75 108.553C1020.82 108.625 1020.9 108.697 1020.9 108.697C1021.59 110.674 1024.54 112.374 1026.97 113.767C1027.81 114.252 1028.59 114.701 1029.19 115.111C1032 117.128 1034.59 119.578 1036.68 122.388C1037.04 122.747 1037.4 123.089 1037.76 123.43C1038.12 123.773 1038.49 124.117 1038.85 124.478C1039.09 124.827 1039.25 125.226 1039.41 125.619C1039.58 126.038 1039.74 126.449 1040 126.784V127C1039.37 126.775 1038.94 126.325 1038.51 125.878C1038.25 125.61 1037.99 125.343 1037.69 125.127C1037.01 124.664 1036.34 124.161 1035.66 123.659C1034.75 122.988 1033.84 122.316 1032.93 121.74C1031.54 120.859 1030.03 120.165 1028.52 119.468C1027.06 118.796 1025.59 118.121 1024.21 117.272C1022.63 116.263 1021.11 115.111 1019.6 113.958C1018.23 112.949 1016.71 111.003 1015.85 109.562C1015.63 109.219 1015.49 108.85 1015.36 108.494C1015.19 108.027 1015.02 107.584 1014.69 107.256C1014.8 106.232 1015.8 105.974 1016.74 105.728C1017.06 105.645 1017.38 105.564 1017.65 105.455Z" fill="#00546B"/>
    <path d="M955.145 41.1793C956.011 40.9632 956.875 40.8185 958.101 40.8185C958.33 41.0471 958.615 41.2416 958.903 41.438C959.341 41.7372 959.787 42.0409 960.048 42.4762C960.208 42.7004 960.311 42.9245 960.414 43.1486C960.543 43.429 960.672 43.7094 960.913 43.9897C960.913 45.7188 960.409 46.8715 959.399 47.5926C959.399 47.5926 959.327 47.6645 959.255 47.7368C958.967 47.161 958.697 46.5853 958.427 46.0096C958.156 45.4322 957.885 44.8549 957.596 44.2777C957.316 43.8849 956.991 43.5249 956.666 43.1636C956.155 42.5971 955.642 42.0274 955.29 41.3235H955.145V41.1793Z" fill="#00546B"/>
    <defs>
    <linearGradient id="paint0_linear_13_102" x1="214.133" y1="97.6814" x2="217.684" y2="85.8062" gradientUnits="userSpaceOnUse">
    <stop stop-color="#FF9700"/>
    <stop offset="0.53" stop-color="#F48E00"/>
    <stop offset="1" stop-color="#D06F00"/>
    </linearGradient>
    <linearGradient id="paint1_linear_13_102" x1="465.162" y1="26.876" x2="517.566" y2="78.7565" gradientUnits="userSpaceOnUse">
    <stop stop-color="#387EB8"/>
    <stop offset="1" stop-color="#366994"/>
    </linearGradient>
    <linearGradient id="paint2_linear_13_102" x1="497.327" y1="60.1903" x2="553.603" y2="113.389" gradientUnits="userSpaceOnUse">
    <stop stop-color="#FFE052"/>
    <stop offset="1" stop-color="#FFC331"/>
    </linearGradient>
    <radialGradient id="paint3_radial_13_102" cx="0" cy="0" r="1" gradientUnits="userSpaceOnUse" gradientTransform="translate(799.379 56.8812) scale(192.508 100.489)">
    <stop stop-color="white"/>
    <stop offset="0.5" stop-color="#4C6B97"/>
    <stop offset="1" stop-color="#231F20"/>
    </radialGradient>
    <clipPath id="clip0_13_102">
    <rect width="117" height="117" fill="white" transform="translate(0 11)"/>
    </clipPath>
    <clipPath id="clip1_13_102">
    <rect width="106" height="106" fill="white" transform="translate(455 17)"/>
    </clipPath>
    <clipPath id="clip2_13_102">
    <rect width="114" height="114" fill="white" transform="translate(599)"/>
    </clipPath>
    </defs>
    </svg>
    