<svg width="1056" height="164" viewBox="0 0 1056 164" fill="none" xmlns="http://www.w3.org/2000/svg">
    <path fill-rule="evenodd" clip-rule="evenodd" d="M1.46289 45.1212L43.9994 39.3282L44.018 80.3581L1.50175 80.6002L1.46289 45.1212ZM43.9791 85.0855L44.0121 126.151L1.49591 120.306L1.49352 84.8101L43.9791 85.0855ZM49.1355 38.5704L105.535 30.3389V79.8362L49.1355 80.284V38.5704ZM105.548 85.4717L105.535 134.746L49.1354 126.786L49.0564 85.3794L105.548 85.4717Z" fill="#00ADEF"/>
    <g clip-path="url(#clip0_13_95)">
    <path d="M145 67.619C145 53.051 145 45.767 147.835 40.2027C150.329 35.3083 154.308 31.329 159.203 28.8351C164.767 26 172.051 26 186.619 26H218.381C232.949 26 240.233 26 245.797 28.8351C250.692 31.329 254.671 35.3083 257.165 40.2027C260 45.767 260 53.051 260 67.619V99.381C260 113.949 260 121.233 257.165 126.797C254.671 131.692 250.692 135.671 245.797 138.165C240.233 141 232.949 141 218.381 141H186.619C172.051 141 164.767 141 159.203 138.165C154.308 135.671 150.329 131.692 147.835 126.797C145 121.233 145 113.949 145 99.381V67.619Z" fill="#330000"/>
    <path d="M200.727 98.2704H182.907L179.281 109.822C179.18 110.252 178.785 110.556 178.355 110.535H169.329C168.814 110.535 168.634 110.244 168.789 109.664L184.218 64.0888C184.373 63.6142 184.527 63.0735 184.681 62.4668C184.883 61.4111 184.986 60.3381 184.99 59.2624C184.946 58.9446 185.225 58.6638 185.53 58.7084H197.796C198.155 58.7084 198.361 58.8403 198.413 59.1041L215.925 109.743C216.079 110.271 215.925 110.535 215.462 110.535H205.433C205.081 110.575 204.746 110.333 204.662 109.981L200.727 98.2704ZM185.684 88.3008H197.873C195.87 81.4576 193.61 74.7043 191.779 67.8077C189.802 74.7159 187.646 81.5962 185.684 88.3008Z" fill="#FF9A00"/>
    <path d="M226.339 67.0953C225.552 67.1278 224.767 66.9895 224.036 66.6895C223.305 66.3895 222.644 65.9347 222.096 65.3546C221.549 64.7494 221.125 64.0394 220.847 63.2654C220.569 62.4915 220.443 61.6687 220.476 60.8446C220.448 60.0285 220.588 59.2156 220.887 58.4589C221.186 57.7022 221.637 57.0188 222.212 56.4532C222.78 55.8934 223.451 55.4548 224.186 55.1628C224.921 54.8708 225.705 54.7312 226.493 54.752C228.345 54.752 229.798 55.3191 230.852 56.4532C231.384 57.0425 231.798 57.7338 232.069 58.4873C232.34 59.2409 232.464 60.0419 232.433 60.8446C232.466 61.6719 232.335 62.4975 232.05 63.2723C231.766 64.0471 231.332 64.7552 230.775 65.3546C230.193 65.9432 229.498 66.4017 228.735 66.7013C227.971 67.0009 227.155 67.135 226.339 67.0953ZM221.016 109.743V71.9218C221.016 71.4472 221.221 71.2097 221.633 71.2097H231.122C231.533 71.2097 231.739 71.4471 231.739 71.9218V109.743C231.739 110.271 231.533 110.535 231.122 110.534H221.71C221.247 110.534 221.016 110.271 221.016 109.743Z" fill="#FF9A00"/>
    </g>
    <g clip-path="url(#clip1_13_95)">
    <path d="M298 64.8095C298 50.8749 298 43.9076 300.712 38.5852C303.097 33.9036 306.904 30.0973 311.585 27.7119C316.908 25 323.875 25 337.81 25H368.19C382.125 25 389.092 25 394.415 27.7119C399.096 30.0973 402.903 33.9036 405.288 38.5852C408 43.9076 408 50.8749 408 64.8095V95.1905C408 109.125 408 116.092 405.288 121.415C402.903 126.096 399.096 129.903 394.415 132.288C389.092 135 382.125 135 368.19 135H337.81C323.875 135 316.908 135 311.585 132.288C306.904 129.903 303.097 126.096 300.712 121.415C298 116.092 298 109.125 298 95.1905V64.8095Z" fill="#001E36"/>
    <path d="M321.571 105.599V57.2276C321.571 56.8986 321.709 56.7105 322.03 56.7105C326.766 56.7105 331.5 56.4285 336.238 56.4285C343.926 56.4285 352.25 59.057 355.167 67.0994C355.855 69.0738 356.221 71.0951 356.221 73.2105C356.221 77.2533 355.305 80.5909 353.471 83.2233C348.35 90.5769 339.474 90.4627 331.517 90.4627V105.552C331.579 105.999 331.199 106.211 330.83 106.211H322.121C321.755 106.211 321.571 106.023 321.571 105.599ZM331.563 65.7832V81.578C334.718 81.8092 338.019 81.8342 341.051 80.8259C344.397 79.8606 346.23 76.9637 346.23 73.4926C346.323 70.5347 344.711 67.6967 341.967 66.6293C338.973 65.3841 334.796 65.3095 331.563 65.7832Z" fill="#31A8FF"/>
    <path d="M384.808 78.4574C383.422 77.7266 381.945 77.1919 380.418 76.868C378.456 76.4063 370.717 74.7894 370.714 78.8358C370.783 81.0949 374.369 82.2017 375.953 82.8471C381.515 84.7567 387.81 88.1702 387.686 95.0322C387.856 103.575 379.58 106.989 372.485 106.99C368.792 107.028 364.944 106.456 361.564 104.871C361.241 104.7 361.033 104.335 361.047 103.963V95.789C361.011 95.4612 361.363 95.1748 361.638 95.4106C364.95 97.4135 368.875 98.3859 372.706 98.4379C374.398 98.4379 377.75 98.2739 377.724 95.789C377.724 93.4042 373.714 92.3078 372.116 91.702C369.799 90.8749 367.602 89.7292 365.585 88.2963C362.767 86.286 360.999 83.0629 361.047 79.517C361.031 71.4737 368.649 67.8634 375.511 67.8617C378.718 67.8352 382.162 68.0728 385.148 69.3753C385.578 69.5018 385.667 69.954 385.665 70.3592V78.0033C385.692 78.4778 385.165 78.6394 384.808 78.4574Z" fill="#31A8FF"/>
    </g>
    <path d="M495.464 135C504.664 135 512.13 127.533 512.13 118.333V101.667H495.464C486.264 101.667 478.797 109.133 478.797 118.333C478.797 127.533 486.264 135 495.464 135Z" fill="#0ACF83"/>
    <path d="M478.797 84.9999C478.797 75.7999 486.264 68.3333 495.464 68.3333H512.13V101.667H495.464C486.264 101.667 478.797 94.1999 478.797 84.9999Z" fill="#A259FF"/>
    <path d="M478.797 51.6667C478.797 42.4667 486.264 35 495.464 35H512.13V68.3333H495.464C486.264 68.3333 478.797 60.8667 478.797 51.6667Z" fill="#F24E1E"/>
    <path d="M512.13 35H528.797C537.997 35 545.464 42.4667 545.464 51.6667C545.464 60.8667 537.997 68.3333 528.797 68.3333H512.13V35Z" fill="#FF7262"/>
    <path d="M545.464 84.9999C545.464 94.1999 537.997 101.667 528.797 101.667C519.597 101.667 512.13 94.1999 512.13 84.9999C512.13 75.7999 519.597 68.3333 528.797 68.3333C537.997 68.3333 545.464 75.7999 545.464 84.9999Z" fill="#1ABCFE"/>
    <path d="M642.27 37.4164C644.529 36.1232 647.471 36.1174 649.728 37.4164C661.084 43.8329 672.443 50.2394 683.797 56.6599C685.933 57.8628 687.361 60.2394 687.339 62.7001V101.305C687.355 103.867 685.786 106.301 683.533 107.476C672.214 113.857 660.902 120.246 649.585 126.628C647.28 127.946 644.278 127.844 642.044 126.418C638.651 124.451 635.252 122.494 631.858 120.528C631.165 120.115 630.383 119.786 629.893 119.114C630.326 118.53 631.1 118.457 631.729 118.203C633.145 117.752 634.446 117.029 635.748 116.328C636.077 116.103 636.478 116.189 636.794 116.39C639.695 118.054 642.571 119.766 645.483 121.414C646.104 121.773 646.733 121.296 647.264 121.001C658.37 114.723 669.491 108.469 680.596 102.19C681.007 101.992 681.235 101.555 681.201 101.105C681.209 88.3699 681.203 75.6328 681.205 62.898C681.252 62.3866 680.956 61.9164 680.494 61.7071C669.215 55.3551 657.941 48.9934 646.664 42.6398C646.469 42.5054 646.237 42.4334 646 42.433C645.763 42.4327 645.532 42.5041 645.336 42.6378C634.059 48.9934 622.787 55.361 611.51 61.7126C611.049 61.9223 610.74 62.3847 610.795 62.898C610.797 75.6328 610.795 88.3699 610.795 101.107C610.775 101.327 610.824 101.547 610.933 101.739C611.043 101.931 611.209 102.084 611.408 102.179C614.418 103.885 617.431 105.58 620.442 107.28C622.139 108.193 624.222 108.736 626.091 108.036C627.74 107.445 628.896 105.762 628.865 104.01C628.88 91.3498 628.857 78.6873 628.876 66.0287C628.835 65.4667 629.368 65.0024 629.915 65.0553C631.361 65.0455 632.809 65.0358 634.255 65.0592C634.858 65.0455 635.274 65.6507 635.199 66.217C635.193 78.9576 635.214 91.6986 635.189 104.439C635.193 107.835 633.798 111.529 630.657 113.191C626.788 115.195 622.006 114.77 618.183 112.848C614.874 111.197 611.716 109.247 608.465 107.478C606.207 106.309 604.645 103.866 604.661 101.305V62.7001C604.637 60.1885 606.122 57.7687 608.324 56.5833C619.641 50.1969 630.955 43.8057 642.27 37.4164Z" fill="#8CC84B"/>
    <path d="M652.142 64.1581C657.078 63.8404 662.361 63.9699 666.803 66.4013C670.241 68.2645 672.148 72.175 672.209 75.9953C672.112 76.5106 671.574 76.7949 671.082 76.7595C669.65 76.7576 668.218 76.779 666.786 76.7498C666.178 76.7731 665.825 76.2131 665.749 75.676C665.337 73.8481 664.34 72.0378 662.62 71.1561C659.979 69.8338 656.917 69.9003 654.037 69.9279C651.934 70.0395 649.674 70.2216 647.892 71.4579C646.525 72.3944 646.11 74.2849 646.598 75.8074C647.058 76.9007 648.32 77.2534 649.352 77.5785C655.3 79.1342 661.603 78.9794 667.438 81.0266C669.853 81.8612 672.216 83.4837 673.043 86.0128C674.125 89.4025 673.651 93.4542 671.239 96.1754C669.283 98.4147 666.435 99.6335 663.594 100.295C659.814 101.138 655.892 101.16 652.054 100.785C648.445 100.374 644.689 99.4258 641.903 96.9668C639.521 94.8982 638.357 91.6749 638.473 88.564C638.5 88.0386 639.023 87.6723 639.527 87.7155C640.969 87.7038 642.411 87.6999 643.853 87.7174C644.429 87.6762 644.856 88.174 644.885 88.7168C645.151 90.4584 645.806 92.2863 647.325 93.3188C650.255 95.2097 653.933 95.0802 657.289 95.1331C660.069 95.0098 663.19 94.9725 665.459 93.1348C666.656 92.0867 667.011 90.3332 666.687 88.8246C666.337 87.5509 665.004 86.9574 663.86 86.5693C657.988 84.7119 651.615 85.3859 645.8 83.2854C643.439 82.4512 641.157 80.8738 640.25 78.4485C638.984 75.016 639.564 70.7703 642.228 68.1409C644.826 65.5255 648.576 64.5182 652.142 64.1577V64.1581Z" fill="#8CC84B"/>
    <path d="M810.985 88.5049C815.169 88.5049 818.56 85.1136 818.56 80.9302C818.56 76.7468 815.169 73.3555 810.985 73.3555C806.802 73.3555 803.411 76.7468 803.411 80.9302C803.411 85.1136 806.802 88.5049 810.985 88.5049Z" fill="#61DAFB"/>
    <path d="M810.985 96.449C833.433 96.449 851.63 89.5009 851.63 80.93C851.63 72.3592 833.433 65.4111 810.985 65.4111C788.538 65.4111 770.341 72.3592 770.341 80.93C770.341 89.5009 788.538 96.449 810.985 96.449Z" stroke="#61DAFB" stroke-width="5"/>
    <path d="M797.546 88.6895C808.769 108.13 823.885 120.415 831.308 116.129C838.73 111.844 835.649 92.6107 824.425 73.1706C813.201 53.7305 798.086 41.4452 790.663 45.7306C783.24 50.0161 786.322 69.2494 797.546 88.6895Z" stroke="#61DAFB" stroke-width="5"/>
    <path d="M797.546 73.1705C786.322 92.6106 783.24 111.844 790.663 116.129C798.086 120.415 813.201 108.129 824.425 88.6894C835.649 69.2493 838.73 50.016 831.308 45.7305C823.885 41.4451 808.769 53.7304 797.546 73.1705Z" stroke="#61DAFB" stroke-width="5"/>
    <path d="M986 60.6731C975.629 60.6731 969.148 65.857 966.555 76.2238C970.444 71.0399 974.982 69.0967 980.166 70.3921C983.125 71.1313 985.239 73.2778 987.58 75.6529C991.393 79.5218 995.806 83.9996 1005.44 83.9996C1015.81 83.9996 1022.3 78.8157 1024.89 68.4479C1021 73.6318 1016.46 75.576 1011.28 74.2805C1008.32 73.5414 1006.21 71.3949 1003.86 69.0198C1000.05 65.1509 995.638 60.6731 986 60.6731ZM966.555 83.9996C956.185 83.9996 949.703 89.1835 947.111 99.5512C951 94.3673 955.537 92.4231 960.723 93.7196C963.68 94.4597 965.795 96.6053 968.136 98.9793C971.948 102.848 976.362 107.327 986 107.327C996.371 107.327 1002.85 102.143 1005.44 91.7754C1001.56 96.9593 997.018 98.9035 991.834 97.607C988.875 96.8688 986.761 94.7214 984.42 92.3473C980.607 88.4783 976.194 83.9996 966.555 83.9996Z" fill="#06B6D4"/>
    <defs>
    <clipPath id="clip0_13_95">
    <rect width="115" height="115" fill="white" transform="translate(145 26)"/>
    </clipPath>
    <clipPath id="clip1_13_95">
    <rect width="110" height="110" fill="white" transform="translate(298 25)"/>
    </clipPath>
    </defs>
    </svg>
    