<svg width="24" height="24" viewBox="0 0 24 24" fill="none" xmlns="http://www.w3.org/2000/svg">
	<g clip-path="url(#clip0_83_144)">
	<path d="M2.99997 5.97499C2.99997 5.40259 3.20268 4.93037 3.60808 4.55832C4.01348 4.18627 4.54052 4.00024 5.18916 4.00024C5.82623 4.00024 6.34166 4.1834 6.73549 4.54974C7.14089 4.92752 7.3436 5.41976 7.3436 6.0265C7.3436 6.576 7.14669 7.0339 6.75287 7.40024C6.34747 7.77802 5.81464 7.9669 5.15441 7.9669H5.13704C4.49996 7.9669 3.98453 7.77802 3.5907 7.40024C3.19687 7.02246 2.99997 6.54737 2.99997 5.97499ZM3.22584 21.0002V9.52953H7.08298V21.0002H3.22584ZM9.22005 21.0002H13.0772V14.5952C13.0772 14.1945 13.1235 13.8854 13.2162 13.6679C13.3783 13.2787 13.6245 12.9495 13.9546 12.6805C14.2847 12.4115 14.6988 12.277 15.1969 12.277C16.4942 12.277 17.1428 13.1413 17.1428 14.8699V21.0002H21V14.4235C21 12.7292 20.5946 11.4442 19.7838 10.5684C18.9729 9.69266 17.9015 9.25478 16.5695 9.25478C15.0753 9.25478 13.9112 9.89013 13.0772 11.1608V11.1952H13.0598L13.0772 11.1608V9.52953H9.22005C9.24321 9.89585 9.2548 11.0349 9.2548 12.9467C9.2548 14.8585 9.24321 17.543 9.22005 21.0002Z" fill="url(#paint0_linear_83_144)"/>
	</g>
	<defs>
	<linearGradient id="paint0_linear_83_144" x1="12" y1="4.00024" x2="12" y2="21.0002" gradientUnits="userSpaceOnUse">
	<stop stop-color="#11D9F4"/>
	<stop offset="0.947972" stop-color="#1535DE"/>
	</linearGradient>
	<clipPath id="clip0_83_144">
	<rect width="18" height="17" fill="white" transform="translate(3 4)"/>
	</clipPath>
	</defs>
	</svg>
	