<svg width="58" height="58" viewBox="0 0 58 58" fill="none" xmlns="http://www.w3.org/2000/svg">
    <path d="M52.0622 16.9034C52.0975 17.4278 52.0975 17.9522 52.0975 18.4814C52.0975 34.6066 40.1276 53.2038 18.24 53.2038V53.1942C11.7744 53.2038 5.44302 51.3045 0 47.7233C0.940158 47.8392 1.88503 47.8972 2.83226 47.8997C8.19045 47.9045 13.3955 46.0607 17.6109 42.6656C12.519 42.5665 8.05379 39.1616 6.49393 34.1909C8.27764 34.5437 10.1155 34.4713 11.8663 33.9807C6.31485 32.8305 2.32094 27.8283 2.32094 22.0191C2.32094 21.9659 2.32094 21.9152 2.32094 21.8644C3.97506 22.8093 5.8271 23.3337 7.72155 23.3917C2.49295 19.808 0.881251 12.6746 4.03868 7.09731C10.0802 14.7213 18.994 19.3561 28.5629 19.8467C27.6039 15.6082 28.914 11.1667 32.0054 8.18715C36.7981 3.56683 44.3359 3.80364 48.8411 8.71636C51.5061 8.17748 54.0603 7.17464 56.3977 5.75374C55.5094 8.57862 53.6503 10.9782 51.1668 12.503C53.5254 12.2178 55.8299 11.5702 58 10.5819C56.4024 13.037 54.3902 15.1756 52.0622 16.9034Z" fill="url(#paint0_linear_9_13)"/>
    <defs>
    <linearGradient id="paint0_linear_9_13" x1="29" y1="4.87109" x2="29" y2="53.2038" gradientUnits="userSpaceOnUse">
    <stop stop-color="#11D9F4"/>
    <stop offset="0.947972" stop-color="#1535DE"/>
    </linearGradient>
    </defs>
    </svg>
    
    